# xmcd
#
# Track frame offsets:
#	182
#	2135
#	26137
#	44512
#	59910
#	80100
#	100212
#	122167
#	145880
#	165862
#	183432
#
# Disc length: 2688 seconds
#
# Revision: 4
# Processed by: cddbd v1.5.2PL0 Copyright (c) Steve Scherf et al.
# Submitted via: EasyCDDAExtractor 2010.6.0.0
#
DISCID=990a7e0b
DTITLE=이승환 - My Story
DYEAR=1993
DGENRE=Ballad
TTITLE0=My Story 
TTITLE1=내게
TTITLE2=잃어버린건 ...³ª Part3 
TTITLE3=남자는? 여자는?
TTITLE4=너의 기억
TTITLE5=무너져버린 믿음 앞에서
TTITLE6=사랑에 관한 충고
TTITLE7=Dunk Shot
TTITLE8=Radio Heaven
TTITLE9=화려하지 않은 고백
TTITLE10=내어머니
EXTD=YEAR: 1993
EXTT0=
EXTT1=
EXTT2=
EXTT3=
EXTT4=
EXTT5=
EXTT6=
EXTT7=
EXTT8=
EXTT9=
EXTT10=
PLAYORDER=
